<mxfile host="app.diagrams.net" modified="2021-09-27T13:55:46.633Z" agent="5.0 (Windows NT 10.0; Win64; x64) AppleWebKit/537.36 (KHTML, like Gecko) Chrome/94.0.4606.61 Safari/537.36" etag="BpoviyCtr9NXd4W1w4MQ" version="15.2.9" type="github">
  <diagram id="sCYvgR0S5933u0AETdj_" name="Page-1">
    <mxGraphModel dx="1240" dy="697" grid="1" gridSize="10" guides="1" tooltips="1" connect="1" arrows="1" fold="1" page="1" pageScale="1" pageWidth="827" pageHeight="1169" math="0" shadow="0">
      <root>
        <mxCell id="0" />
        <mxCell id="1" parent="0" />
        <mxCell id="FQuDmfhdobPVnuS-7TEp-1" value="&lt;font style=&quot;font-size: 15px&quot;&gt;Manobrista&lt;/font&gt;" style="rounded=0;whiteSpace=wrap;html=1;" vertex="1" parent="1">
          <mxGeometry x="100" y="270" width="120" height="60" as="geometry" />
        </mxCell>
        <mxCell id="FQuDmfhdobPVnuS-7TEp-2" value="&lt;font style=&quot;font-size: 15px&quot;&gt;Carro&lt;/font&gt;" style="rounded=0;whiteSpace=wrap;html=1;" vertex="1" parent="1">
          <mxGeometry x="500" y="270" width="120" height="60" as="geometry" />
        </mxCell>
        <mxCell id="FQuDmfhdobPVnuS-7TEp-3" value="&lt;font style=&quot;font-size: 15px&quot;&gt;Comprovante&amp;nbsp;&lt;/font&gt;" style="rounded=0;whiteSpace=wrap;html=1;" vertex="1" parent="1">
          <mxGeometry x="100" y="530" width="120" height="60" as="geometry" />
        </mxCell>
        <mxCell id="FQuDmfhdobPVnuS-7TEp-4" value="&lt;font style=&quot;font-size: 15px&quot;&gt;Cliente&amp;nbsp;&lt;/font&gt;" style="rounded=0;whiteSpace=wrap;html=1;" vertex="1" parent="1">
          <mxGeometry x="500" y="530" width="120" height="60" as="geometry" />
        </mxCell>
        <mxCell id="FQuDmfhdobPVnuS-7TEp-5" value="Possui" style="rhombus;whiteSpace=wrap;html=1;" vertex="1" parent="1">
          <mxGeometry x="495" y="420" width="130" height="40" as="geometry" />
        </mxCell>
        <mxCell id="FQuDmfhdobPVnuS-7TEp-8" value="" style="endArrow=none;html=1;exitX=0.5;exitY=0;exitDx=0;exitDy=0;" edge="1" parent="1" source="FQuDmfhdobPVnuS-7TEp-5">
          <mxGeometry width="50" height="50" relative="1" as="geometry">
            <mxPoint x="559.5" y="390" as="sourcePoint" />
            <mxPoint x="559.5" y="330" as="targetPoint" />
          </mxGeometry>
        </mxCell>
        <mxCell id="FQuDmfhdobPVnuS-7TEp-9" value="" style="endArrow=none;html=1;exitX=0.5;exitY=0;exitDx=0;exitDy=0;" edge="1" parent="1" source="FQuDmfhdobPVnuS-7TEp-4">
          <mxGeometry width="50" height="50" relative="1" as="geometry">
            <mxPoint x="560" y="530" as="sourcePoint" />
            <mxPoint x="559.5" y="460" as="targetPoint" />
          </mxGeometry>
        </mxCell>
        <mxCell id="FQuDmfhdobPVnuS-7TEp-10" value="Estaciona" style="rhombus;whiteSpace=wrap;html=1;" vertex="1" parent="1">
          <mxGeometry x="300" y="280" width="120" height="40" as="geometry" />
        </mxCell>
        <mxCell id="FQuDmfhdobPVnuS-7TEp-11" value="" style="endArrow=none;html=1;entryX=0;entryY=0.5;entryDx=0;entryDy=0;" edge="1" parent="1" target="FQuDmfhdobPVnuS-7TEp-10">
          <mxGeometry width="50" height="50" relative="1" as="geometry">
            <mxPoint x="220" y="300" as="sourcePoint" />
            <mxPoint x="280" y="299.5" as="targetPoint" />
            <Array as="points">
              <mxPoint x="240" y="299.5" />
            </Array>
          </mxGeometry>
        </mxCell>
        <mxCell id="FQuDmfhdobPVnuS-7TEp-12" value="" style="endArrow=none;html=1;" edge="1" parent="1">
          <mxGeometry width="50" height="50" relative="1" as="geometry">
            <mxPoint x="420" y="299.5" as="sourcePoint" />
            <mxPoint x="500" y="300" as="targetPoint" />
            <Array as="points">
              <mxPoint x="450" y="299.5" />
            </Array>
          </mxGeometry>
        </mxCell>
        <mxCell id="FQuDmfhdobPVnuS-7TEp-13" value="Cadastra" style="rhombus;whiteSpace=wrap;html=1;" vertex="1" parent="1">
          <mxGeometry x="90" y="415" width="140" height="50" as="geometry" />
        </mxCell>
        <mxCell id="FQuDmfhdobPVnuS-7TEp-15" value="" style="endArrow=none;html=1;exitX=0.5;exitY=0;exitDx=0;exitDy=0;entryX=0.5;entryY=1;entryDx=0;entryDy=0;" edge="1" parent="1" source="FQuDmfhdobPVnuS-7TEp-13" target="FQuDmfhdobPVnuS-7TEp-1">
          <mxGeometry width="50" height="50" relative="1" as="geometry">
            <mxPoint x="163" y="400" as="sourcePoint" />
            <mxPoint x="159" y="360" as="targetPoint" />
          </mxGeometry>
        </mxCell>
        <mxCell id="FQuDmfhdobPVnuS-7TEp-16" value="" style="endArrow=none;html=1;exitX=0.5;exitY=0;exitDx=0;exitDy=0;" edge="1" parent="1" source="FQuDmfhdobPVnuS-7TEp-3">
          <mxGeometry width="50" height="50" relative="1" as="geometry">
            <mxPoint x="160" y="520" as="sourcePoint" />
            <mxPoint x="159.5" y="465" as="targetPoint" />
          </mxGeometry>
        </mxCell>
        <mxCell id="FQuDmfhdobPVnuS-7TEp-18" value="Entregue" style="rhombus;whiteSpace=wrap;html=1;" vertex="1" parent="1">
          <mxGeometry x="290" y="535" width="140" height="50" as="geometry" />
        </mxCell>
        <mxCell id="FQuDmfhdobPVnuS-7TEp-19" value="" style="endArrow=none;html=1;entryX=0;entryY=0.5;entryDx=0;entryDy=0;" edge="1" parent="1" target="FQuDmfhdobPVnuS-7TEp-18">
          <mxGeometry width="50" height="50" relative="1" as="geometry">
            <mxPoint x="220" y="559.5" as="sourcePoint" />
            <mxPoint x="280" y="559.5" as="targetPoint" />
          </mxGeometry>
        </mxCell>
        <mxCell id="FQuDmfhdobPVnuS-7TEp-20" value="" style="endArrow=none;html=1;entryX=0;entryY=0.5;entryDx=0;entryDy=0;" edge="1" parent="1" target="FQuDmfhdobPVnuS-7TEp-4">
          <mxGeometry width="50" height="50" relative="1" as="geometry">
            <mxPoint x="430" y="559.5" as="sourcePoint" />
            <mxPoint x="490" y="559.5" as="targetPoint" />
          </mxGeometry>
        </mxCell>
        <mxCell id="FQuDmfhdobPVnuS-7TEp-23" value="Ocupa" style="rhombus;whiteSpace=wrap;html=1;" vertex="1" parent="1">
          <mxGeometry x="500" y="170" width="120" height="40" as="geometry" />
        </mxCell>
        <mxCell id="FQuDmfhdobPVnuS-7TEp-24" value="&lt;font style=&quot;font-size: 15px&quot;&gt;Vaga&lt;/font&gt;" style="rounded=0;whiteSpace=wrap;html=1;" vertex="1" parent="1">
          <mxGeometry x="500" y="60" width="120" height="60" as="geometry" />
        </mxCell>
        <mxCell id="FQuDmfhdobPVnuS-7TEp-25" value="" style="endArrow=none;html=1;exitX=0.5;exitY=0;exitDx=0;exitDy=0;" edge="1" parent="1" source="FQuDmfhdobPVnuS-7TEp-23">
          <mxGeometry width="50" height="50" relative="1" as="geometry">
            <mxPoint x="559.5" y="150" as="sourcePoint" />
            <mxPoint x="559.5" y="120" as="targetPoint" />
          </mxGeometry>
        </mxCell>
        <mxCell id="FQuDmfhdobPVnuS-7TEp-26" value="" style="endArrow=none;html=1;exitX=0.5;exitY=0;exitDx=0;exitDy=0;" edge="1" parent="1" source="FQuDmfhdobPVnuS-7TEp-2">
          <mxGeometry width="50" height="50" relative="1" as="geometry">
            <mxPoint x="560" y="260" as="sourcePoint" />
            <mxPoint x="559.5" y="210" as="targetPoint" />
          </mxGeometry>
        </mxCell>
        <mxCell id="FQuDmfhdobPVnuS-7TEp-28" value="" style="ellipse;whiteSpace=wrap;html=1;align=center;" vertex="1" parent="1">
          <mxGeometry x="430" y="360" width="40" height="20" as="geometry" />
        </mxCell>
        <mxCell id="FQuDmfhdobPVnuS-7TEp-31" value="" style="ellipse;whiteSpace=wrap;html=1;align=center;" vertex="1" parent="1">
          <mxGeometry x="600" y="140" width="30" height="20" as="geometry" />
        </mxCell>
        <mxCell id="FQuDmfhdobPVnuS-7TEp-33" value="" style="endArrow=none;html=1;rounded=0;exitX=0.75;exitY=1;exitDx=0;exitDy=0;" edge="1" parent="1" source="FQuDmfhdobPVnuS-7TEp-24">
          <mxGeometry relative="1" as="geometry">
            <mxPoint x="590" y="130" as="sourcePoint" />
            <mxPoint x="610" y="140" as="targetPoint" />
          </mxGeometry>
        </mxCell>
        <mxCell id="FQuDmfhdobPVnuS-7TEp-38" value="" style="ellipse;whiteSpace=wrap;html=1;align=center;" vertex="1" parent="1">
          <mxGeometry x="460" y="140" width="35" height="20" as="geometry" />
        </mxCell>
        <mxCell id="FQuDmfhdobPVnuS-7TEp-39" value="" style="endArrow=none;html=1;rounded=0;exitX=0.125;exitY=1;exitDx=0;exitDy=0;exitPerimeter=0;" edge="1" parent="1" source="FQuDmfhdobPVnuS-7TEp-24">
          <mxGeometry relative="1" as="geometry">
            <mxPoint x="425" y="130" as="sourcePoint" />
            <mxPoint x="480" y="140" as="targetPoint" />
          </mxGeometry>
        </mxCell>
        <mxCell id="FQuDmfhdobPVnuS-7TEp-40" value="status" style="text;html=1;align=center;verticalAlign=middle;resizable=0;points=[];autosize=1;strokeColor=none;fillColor=none;" vertex="1" parent="1">
          <mxGeometry x="625" y="140" width="50" height="20" as="geometry" />
        </mxCell>
        <mxCell id="FQuDmfhdobPVnuS-7TEp-41" value="&lt;u&gt;num_ID&lt;/u&gt;" style="text;html=1;align=center;verticalAlign=middle;resizable=0;points=[];autosize=1;strokeColor=none;fillColor=none;" vertex="1" parent="1">
          <mxGeometry x="400" y="140" width="60" height="20" as="geometry" />
        </mxCell>
        <mxCell id="FQuDmfhdobPVnuS-7TEp-43" value="" style="endArrow=none;html=1;rounded=0;exitX=0.624;exitY=0.992;exitDx=0;exitDy=0;exitPerimeter=0;entryX=0;entryY=0;entryDx=0;entryDy=0;" edge="1" parent="1" source="FQuDmfhdobPVnuS-7TEp-2" target="FQuDmfhdobPVnuS-7TEp-48">
          <mxGeometry relative="1" as="geometry">
            <mxPoint x="575" y="332" as="sourcePoint" />
            <mxPoint x="625" y="370" as="targetPoint" />
            <Array as="points">
              <mxPoint x="575" y="370" />
            </Array>
          </mxGeometry>
        </mxCell>
        <mxCell id="FQuDmfhdobPVnuS-7TEp-46" value="" style="endArrow=none;html=1;rounded=0;exitX=0.624;exitY=0.992;exitDx=0;exitDy=0;exitPerimeter=0;" edge="1" parent="1">
          <mxGeometry relative="1" as="geometry">
            <mxPoint x="609.9399999999999" y="330" as="sourcePoint" />
            <mxPoint x="630" y="350" as="targetPoint" />
            <Array as="points">
              <mxPoint x="610" y="350" />
            </Array>
          </mxGeometry>
        </mxCell>
        <mxCell id="FQuDmfhdobPVnuS-7TEp-47" value="" style="ellipse;whiteSpace=wrap;html=1;align=center;" vertex="1" parent="1">
          <mxGeometry x="630" y="340" width="50" height="20" as="geometry" />
        </mxCell>
        <mxCell id="FQuDmfhdobPVnuS-7TEp-48" value="" style="ellipse;whiteSpace=wrap;html=1;align=center;" vertex="1" parent="1">
          <mxGeometry x="610" y="380" width="40" height="20" as="geometry" />
        </mxCell>
        <mxCell id="FQuDmfhdobPVnuS-7TEp-49" value="" style="endArrow=none;html=1;rounded=0;entryX=0.25;entryY=1;entryDx=0;entryDy=0;" edge="1" parent="1" target="FQuDmfhdobPVnuS-7TEp-2">
          <mxGeometry relative="1" as="geometry">
            <mxPoint x="470" y="370" as="sourcePoint" />
            <mxPoint x="570" y="360" as="targetPoint" />
            <Array as="points">
              <mxPoint x="500" y="360" />
            </Array>
          </mxGeometry>
        </mxCell>
        <mxCell id="FQuDmfhdobPVnuS-7TEp-50" value="&lt;u&gt;placa&lt;/u&gt;" style="text;html=1;align=center;verticalAlign=middle;resizable=0;points=[];autosize=1;strokeColor=none;fillColor=none;" vertex="1" parent="1">
          <mxGeometry x="680" y="340" width="40" height="20" as="geometry" />
        </mxCell>
        <mxCell id="FQuDmfhdobPVnuS-7TEp-52" value="cor" style="text;html=1;align=center;verticalAlign=middle;resizable=0;points=[];autosize=1;strokeColor=none;fillColor=none;" vertex="1" parent="1">
          <mxGeometry x="655" y="380" width="30" height="20" as="geometry" />
        </mxCell>
        <mxCell id="FQuDmfhdobPVnuS-7TEp-53" value="modelo" style="text;html=1;align=center;verticalAlign=middle;resizable=0;points=[];autosize=1;strokeColor=none;fillColor=none;" vertex="1" parent="1">
          <mxGeometry x="375" y="360" width="50" height="20" as="geometry" />
        </mxCell>
        <mxCell id="FQuDmfhdobPVnuS-7TEp-55" value="" style="triangle;whiteSpace=wrap;html=1;direction=north;" vertex="1" parent="1">
          <mxGeometry x="530" y="630" width="60" height="50" as="geometry" />
        </mxCell>
        <mxCell id="FQuDmfhdobPVnuS-7TEp-56" value="" style="endArrow=none;html=1;" edge="1" parent="1">
          <mxGeometry width="50" height="50" relative="1" as="geometry">
            <mxPoint x="560" y="630" as="sourcePoint" />
            <mxPoint x="559.58" y="590" as="targetPoint" />
          </mxGeometry>
        </mxCell>
        <mxCell id="FQuDmfhdobPVnuS-7TEp-57" value="" style="endArrow=none;html=1;" edge="1" parent="1">
          <mxGeometry width="50" height="50" relative="1" as="geometry">
            <mxPoint x="490" y="720" as="sourcePoint" />
            <mxPoint x="530" y="680" as="targetPoint" />
          </mxGeometry>
        </mxCell>
        <mxCell id="FQuDmfhdobPVnuS-7TEp-59" value="" style="endArrow=none;html=1;" edge="1" parent="1">
          <mxGeometry width="50" height="50" relative="1" as="geometry">
            <mxPoint x="640" y="720" as="sourcePoint" />
            <mxPoint x="590" y="680" as="targetPoint" />
          </mxGeometry>
        </mxCell>
        <mxCell id="FQuDmfhdobPVnuS-7TEp-60" value="Avulso" style="whiteSpace=wrap;html=1;align=center;" vertex="1" parent="1">
          <mxGeometry x="440" y="720" width="100" height="40" as="geometry" />
        </mxCell>
        <mxCell id="FQuDmfhdobPVnuS-7TEp-61" value="Mensalista" style="whiteSpace=wrap;html=1;align=center;" vertex="1" parent="1">
          <mxGeometry x="600" y="720" width="100" height="40" as="geometry" />
        </mxCell>
        <mxCell id="FQuDmfhdobPVnuS-7TEp-62" value="" style="endArrow=none;html=1;rounded=0;exitX=0.75;exitY=1;exitDx=0;exitDy=0;" edge="1" parent="1" source="FQuDmfhdobPVnuS-7TEp-3">
          <mxGeometry relative="1" as="geometry">
            <mxPoint x="140" y="620" as="sourcePoint" />
            <mxPoint x="270" y="620" as="targetPoint" />
            <Array as="points">
              <mxPoint x="210" y="610" />
            </Array>
          </mxGeometry>
        </mxCell>
        <mxCell id="FQuDmfhdobPVnuS-7TEp-63" value="" style="endArrow=none;html=1;rounded=0;exitX=0.5;exitY=1;exitDx=0;exitDy=0;" edge="1" parent="1" source="FQuDmfhdobPVnuS-7TEp-3">
          <mxGeometry relative="1" as="geometry">
            <mxPoint x="160" y="650" as="sourcePoint" />
            <mxPoint x="260" y="650" as="targetPoint" />
            <Array as="points">
              <mxPoint x="190" y="640" />
            </Array>
          </mxGeometry>
        </mxCell>
        <mxCell id="FQuDmfhdobPVnuS-7TEp-64" value="" style="endArrow=none;html=1;rounded=0;" edge="1" parent="1">
          <mxGeometry relative="1" as="geometry">
            <mxPoint x="145" y="640" as="sourcePoint" />
            <mxPoint x="145" y="590" as="targetPoint" />
          </mxGeometry>
        </mxCell>
        <mxCell id="FQuDmfhdobPVnuS-7TEp-65" value="" style="triangle;whiteSpace=wrap;html=1;direction=north;" vertex="1" parent="1">
          <mxGeometry x="120" y="640" width="50" height="40" as="geometry" />
        </mxCell>
        <mxCell id="FQuDmfhdobPVnuS-7TEp-66" value="" style="endArrow=none;html=1;" edge="1" parent="1">
          <mxGeometry width="50" height="50" relative="1" as="geometry">
            <mxPoint x="80" y="719.9999999999998" as="sourcePoint" />
            <mxPoint x="120" y="679.9999999999998" as="targetPoint" />
          </mxGeometry>
        </mxCell>
        <mxCell id="FQuDmfhdobPVnuS-7TEp-67" value="Avulso" style="whiteSpace=wrap;html=1;align=center;" vertex="1" parent="1">
          <mxGeometry x="30" y="720" width="90" height="30" as="geometry" />
        </mxCell>
        <mxCell id="FQuDmfhdobPVnuS-7TEp-68" value="" style="endArrow=none;html=1;" edge="1" parent="1" source="FQuDmfhdobPVnuS-7TEp-67">
          <mxGeometry width="50" height="50" relative="1" as="geometry">
            <mxPoint x="120" y="785" as="sourcePoint" />
            <mxPoint x="150" y="780" as="targetPoint" />
            <Array as="points">
              <mxPoint x="130" y="770" />
            </Array>
          </mxGeometry>
        </mxCell>
        <mxCell id="FQuDmfhdobPVnuS-7TEp-69" value="" style="ellipse;whiteSpace=wrap;html=1;" vertex="1" parent="1">
          <mxGeometry x="150" y="770" width="50" height="20" as="geometry" />
        </mxCell>
        <mxCell id="FQuDmfhdobPVnuS-7TEp-72" value="valor_pago" style="text;html=1;align=center;verticalAlign=middle;resizable=0;points=[];autosize=1;strokeColor=none;fillColor=none;" vertex="1" parent="1">
          <mxGeometry x="210" y="770" width="70" height="20" as="geometry" />
        </mxCell>
        <mxCell id="FQuDmfhdobPVnuS-7TEp-73" value="" style="ellipse;whiteSpace=wrap;html=1;" vertex="1" parent="1">
          <mxGeometry x="270" y="610" width="50" height="20" as="geometry" />
        </mxCell>
        <mxCell id="FQuDmfhdobPVnuS-7TEp-74" value="" style="ellipse;whiteSpace=wrap;html=1;" vertex="1" parent="1">
          <mxGeometry x="260" y="640" width="50" height="20" as="geometry" />
        </mxCell>
        <mxCell id="FQuDmfhdobPVnuS-7TEp-75" value="hora_entrada" style="text;html=1;align=center;verticalAlign=middle;resizable=0;points=[];autosize=1;strokeColor=none;fillColor=none;" vertex="1" parent="1">
          <mxGeometry x="315" y="610" width="90" height="20" as="geometry" />
        </mxCell>
        <mxCell id="FQuDmfhdobPVnuS-7TEp-76" value="hora_saida" style="text;html=1;align=center;verticalAlign=middle;resizable=0;points=[];autosize=1;strokeColor=none;fillColor=none;" vertex="1" parent="1">
          <mxGeometry x="315" y="645" width="70" height="20" as="geometry" />
        </mxCell>
        <mxCell id="FQuDmfhdobPVnuS-7TEp-78" value="" style="ellipse;whiteSpace=wrap;html=1;" vertex="1" parent="1">
          <mxGeometry x="690" y="790" width="50" height="20" as="geometry" />
        </mxCell>
        <mxCell id="FQuDmfhdobPVnuS-7TEp-80" value="" style="endArrow=none;html=1;entryX=0;entryY=0.5;entryDx=0;entryDy=0;exitX=0.5;exitY=1;exitDx=0;exitDy=0;" edge="1" parent="1" source="FQuDmfhdobPVnuS-7TEp-61" target="FQuDmfhdobPVnuS-7TEp-78">
          <mxGeometry width="50" height="50" relative="1" as="geometry">
            <mxPoint x="640" y="810" as="sourcePoint" />
            <mxPoint x="690" y="760" as="targetPoint" />
            <Array as="points">
              <mxPoint x="670" y="780" />
              <mxPoint x="680" y="790" />
            </Array>
          </mxGeometry>
        </mxCell>
        <mxCell id="FQuDmfhdobPVnuS-7TEp-81" value="nome" style="text;html=1;align=center;verticalAlign=middle;resizable=0;points=[];autosize=1;strokeColor=none;fillColor=none;" vertex="1" parent="1">
          <mxGeometry x="740" y="790" width="50" height="20" as="geometry" />
        </mxCell>
        <mxCell id="FQuDmfhdobPVnuS-7TEp-82" value="" style="endArrow=none;html=1;entryX=0;entryY=0.5;entryDx=0;entryDy=0;exitX=0.5;exitY=1;exitDx=0;exitDy=0;" edge="1" parent="1">
          <mxGeometry width="50" height="50" relative="1" as="geometry">
            <mxPoint x="610" y="759.9999999999998" as="sourcePoint" />
            <mxPoint x="650.00000000001" y="799.9999999999998" as="targetPoint" />
            <Array as="points">
              <mxPoint x="630" y="780" />
            </Array>
          </mxGeometry>
        </mxCell>
        <mxCell id="FQuDmfhdobPVnuS-7TEp-83" value="" style="ellipse;whiteSpace=wrap;html=1;" vertex="1" parent="1">
          <mxGeometry x="625" y="800" width="50" height="20" as="geometry" />
        </mxCell>
        <mxCell id="FQuDmfhdobPVnuS-7TEp-84" value="valor_mensal" style="text;html=1;align=center;verticalAlign=middle;resizable=0;points=[];autosize=1;strokeColor=none;fillColor=none;" vertex="1" parent="1">
          <mxGeometry x="605" y="820" width="90" height="20" as="geometry" />
        </mxCell>
        <mxCell id="FQuDmfhdobPVnuS-7TEp-86" value="" style="endArrow=none;html=1;rounded=0;entryX=0.25;entryY=1;entryDx=0;entryDy=0;" edge="1" parent="1" target="FQuDmfhdobPVnuS-7TEp-3">
          <mxGeometry relative="1" as="geometry">
            <mxPoint x="70" y="640" as="sourcePoint" />
            <mxPoint x="130" y="630" as="targetPoint" />
            <Array as="points">
              <mxPoint x="110" y="630" />
            </Array>
          </mxGeometry>
        </mxCell>
        <mxCell id="FQuDmfhdobPVnuS-7TEp-87" value="" style="ellipse;whiteSpace=wrap;html=1;" vertex="1" parent="1">
          <mxGeometry x="20" y="630" width="50" height="20" as="geometry" />
        </mxCell>
        <mxCell id="FQuDmfhdobPVnuS-7TEp-88" value="num_ID" style="text;html=1;align=center;verticalAlign=middle;resizable=0;points=[];autosize=1;strokeColor=none;fillColor=none;" vertex="1" parent="1">
          <mxGeometry x="10" y="650" width="60" height="20" as="geometry" />
        </mxCell>
      </root>
    </mxGraphModel>
  </diagram>
</mxfile>
